<svg width="36" height="36" viewBox="0 0 36 36" fill="none" xmlns="http://www.w3.org/2000/svg">
<path fill-rule="evenodd" clip-rule="evenodd" d="M36 18C36 27.9411 27.9411 36 18 36C8.05887 36 0 27.9411 0 18C0 8.05887 8.05887 0 18 0C27.9411 0 36 8.05887 36 18ZM18 29C17.4477 29 17 28.5523 17 28V19H8C7.44772 19 7 18.5523 7 18C7 17.4477 7.44772 17 8 17H17V8C17 7.44772 17.4477 7 18 7C18.5523 7 19 7.44772 19 8V17H28C28.5523 17 29 17.4477 29 18C29 18.5523 28.5523 19 28 19H19V28C19 28.5523 18.5523 29 18 29Z" fill="#222222"/>
</svg>
