<svg width="25" height="84" viewBox="0 0 25 84" fill="none" xmlns="http://www.w3.org/2000/svg">
<path d="M23.369 71.8395C22.9051 70.415 22.4992 68.9632 22.3832 67.4565C22.2382 65.7306 22.3542 64.0048 22.6151 62.3064C23.05 59.43 23.5429 56.581 24.0068 53.732C24.2678 52.0883 24.5287 50.4173 24.4707 48.7462C24.4418 47.8696 24.4997 46.993 24.5287 46.1164C24.5867 44.8289 24.7027 43.5414 24.6737 42.2538C24.6447 39.3227 23.9489 32.7207 23.9199 32.5289C23.8619 32.255 23.6589 31.7071 23.456 31.1592C23.34 30.6661 23.195 30.2552 23.021 29.9812C22.4412 28.502 21.8033 27.0501 21.2234 25.5434C20.3826 23.3519 19.5418 21.1877 18.8169 18.9688C18.1501 16.9142 17.9181 14.7775 17.7151 12.6133C17.5992 11.3258 17.6862 10.0657 18.382 8.88773C18.614 8.47682 18.237 7.05233 18.266 5.87438C18.266 5.87438 18.7879 5.87437 18.7879 5.7648C18.8169 4.66903 18.7589 3.68284 18.6719 3.35411C18.527 2.80623 18.1211 1.65567 17.5122 1.49131C16.9613 1.35434 16.1785 0.861241 15.6276 0.779059C13.453 0.477723 11.5394 0.861243 9.36487 1.0804C8.55304 1.16258 7.7702 0.998212 7.01635 1.32694C6.46546 1.57349 6.11754 2.97059 6.14653 3.57326C6.14653 3.71023 6.14653 4.8334 6.20452 6.06613L6.7844 6.14832C6.84239 7.32627 6.37848 8.83294 6.55244 9.13428C6.69741 9.35343 6.7844 9.62737 6.90038 9.87392C7.10333 10.3122 7.21931 10.7779 7.19032 11.2436C7.13233 12.0655 7.07434 12.8873 6.98736 13.7091C6.7844 15.7089 6.40747 17.6539 5.82759 19.5441H5.79861C5.45068 20.7494 5.04476 21.9548 4.52286 23.1601C4.37789 23.5162 4.23292 23.8997 4.08795 24.2559C3.33411 26.0639 2.60927 27.8719 1.88442 29.6799C1.85542 29.7347 1.82642 29.8169 1.79743 29.8717C0.898614 31.5701 0.579684 36.0627 0.55069 37.4051C0.492702 40.0897 0.405721 43.0483 0.289745 46.1712C0.260751 47.1574 0.463702 48.1162 0.318732 49.1024C0.260744 49.5133 0.260746 49.9516 0.347728 50.3625C0.695656 52.6088 1.04359 54.8825 1.42051 57.1289C1.91341 59.9505 2.40631 62.7447 2.4353 65.6211C2.4353 67.2373 2.34832 68.8262 1.88442 70.3603C1.53649 71.5382 1.15956 72.6888 0.84063 73.8941C0.434714 75.3734 0.144775 76.8801 0.144775 78.4415C0.144775 80.0852 0.84063 81.2905 2.4353 82.0576C4.08796 82.852 5.8276 83.2629 7.65422 83.5368C8.46605 83.6464 9.30688 83.7286 10.1187 83.8108C11.2495 83.8108 12.3513 83.8108 13.482 83.8108C13.656 83.7834 13.8589 83.756 14.0329 83.756C15.5406 83.6738 17.0773 83.5916 18.556 83.2903C20.0637 82.989 21.5134 82.578 22.8471 81.7836C23.8909 81.1536 24.6157 80.3317 24.5867 79.099C24.5867 78.2772 24.5577 77.4279 24.4707 76.6061C24.3258 74.9899 23.8909 73.401 23.369 71.8395Z" fill="white"/>
<path d="M4.95795 6.01143C4.95795 6.01143 5.59583 6.6141 10.7278 6.6141C14.1491 6.6141 15.8597 6.50452 16.6425 6.42234C16.9905 6.39495 17.2514 6.121 17.2804 5.76488C17.3674 4.58693 17.0485 1.9297 15.7437 1.51878C14.0331 0.998294 8.75617 0.450413 5.7408 2.17625C4.55204 2.88849 4.95795 6.01143 4.95795 6.01143Z" fill="black"/>
<path d="M23.978 53.7323C24.239 52.0886 24.4999 50.4176 24.4419 48.7465C24.4129 47.8699 24.4709 46.9933 24.4999 46.1167C24.5579 44.8292 24.6739 43.5416 24.6449 42.2541C24.6159 39.3229 23.92 32.7209 23.8911 32.5292C23.7751 31.9813 23.1952 30.502 22.9922 30.0089C22.4124 28.5296 21.7745 27.0777 21.1946 25.5711C20.4408 23.5987 19.6579 21.5989 18.9911 19.5991H10.9887C10.9307 20.2292 10.9017 20.8319 10.8727 21.4619C10.6988 23.9548 10.4668 26.4477 10.2639 28.9679C10.1769 29.9815 10.0609 30.9951 9.91594 32.0087C9.85795 32.4196 9.74197 32.5292 9.30706 32.5292C8.72718 32.5292 8.1473 32.5018 7.56742 32.5018C7.33547 32.5018 7.24849 32.3922 7.30648 32.173C7.53843 31.0225 7.74139 29.8719 7.94435 28.7214C8.49524 25.6806 9.07512 22.6673 9.53902 19.6265H5.7698C5.42187 20.8319 5.01596 22.0372 4.49406 23.2425C3.53726 25.4615 2.89939 27.8174 1.76862 29.9815C0.869806 31.68 0.550875 36.1726 0.521881 37.5149C0.463893 40.1995 0.405907 43.1033 0.260937 46.281C0.231943 47.2672 0.434903 48.226 0.289933 49.2122C0.231945 49.6231 0.231938 50.0614 0.31892 50.4724C0.666848 52.7187 1.01478 54.9924 1.3917 57.2387C1.8846 60.0603 2.3775 62.8545 2.40649 65.7309C2.40649 67.3472 2.31951 68.936 1.85561 70.4701C1.50768 71.648 1.13076 72.7986 0.811821 74.0039C0.405905 75.4832 0.115967 76.9899 0.115967 78.5514C0.115967 80.195 0.811821 81.4004 2.40649 82.1674C4.05915 82.9618 5.79879 83.3727 7.62541 83.6467C8.43725 83.7563 9.27807 83.8384 10.0899 83.9206C11.2207 83.9206 12.3224 83.9206 13.4532 83.9206C13.6272 83.8932 13.8301 83.8658 14.0041 83.8658C15.5118 83.7837 17.0485 83.7015 18.5272 83.4001C20.0349 83.0988 21.4846 82.6879 22.8183 81.8935C23.8621 81.2634 24.5869 80.4416 24.5579 79.2088C24.5579 78.387 24.5289 77.5378 24.4419 76.716C24.239 75.0723 23.8331 73.4834 23.3112 71.8946C22.8473 70.4701 22.4414 69.0182 22.3254 67.5115C22.1804 65.7857 22.2964 64.0599 22.5573 62.3614C23.0212 59.4302 23.5141 56.5812 23.978 53.7323ZM6.92956 33.8441C7.2195 33.8441 7.45145 33.8715 7.71239 33.8715C8.26328 33.8989 8.81417 33.9537 9.36506 34.0085C9.74198 34.0358 9.77097 34.0632 9.71299 34.4194C9.655 34.8851 9.59701 35.3508 9.51003 35.8987C8.69819 35.8713 7.91535 35.8439 7.16151 35.8165C6.87157 35.7891 6.7266 35.6247 6.75559 35.3508C6.78459 34.8577 6.87157 34.3646 6.92956 33.8441ZM7.68341 81.6469C7.19051 81.5921 6.81358 81.2634 6.75559 80.7703C6.7266 80.6333 6.7556 80.4416 6.95856 80.469C7.62542 80.4964 8.29228 80.6607 8.93014 80.8799C8.78517 81.4004 8.26329 81.7017 7.68341 81.6469ZM10.2929 71.1002C10.1189 72.5794 9.77097 74.0039 9.24908 75.401C9.22009 75.4558 9.19109 75.5106 9.16209 75.5928C8.84316 76.2776 8.49523 76.4146 7.71239 76.2229C7.36446 76.1407 7.10353 75.9215 7.10353 75.5654C7.10353 75.1271 7.13252 74.6614 7.2485 74.2231C7.50944 73.2643 7.79938 72.3055 8.08932 71.3467C8.43725 70.1688 8.55322 68.936 8.46624 67.7307C8.29227 65.0187 8.11831 62.334 7.88636 59.622C7.6834 57.0469 7.39346 54.4719 7.16151 51.8968C7.10352 51.2942 7.01654 50.6641 6.92956 50.0614C6.92956 49.9793 6.92956 49.9245 6.90056 49.7875C7.59642 49.8697 8.26328 49.9519 8.90115 50.034C8.95914 50.034 9.04612 50.1984 9.04612 50.2806C9.1621 51.5407 9.30707 52.8282 9.39405 54.0884C9.68399 57.9236 9.97393 61.7587 10.2349 65.5939C10.4088 67.4567 10.4958 69.2647 10.2929 71.1002Z" fill="black"/>
<path d="M18.788 5.73766C18.1212 6.09378 17.7443 5.49111 16.9904 5.60069C16.3815 5.68287 16.3525 6.4773 15.6277 6.53209C15.0478 6.58688 14.5259 5.87463 13.8881 5.87463C13.4821 5.87463 12.8153 6.75124 12.4094 6.75124C11.8585 6.75124 11.2206 5.98421 10.7277 5.98421C10.0898 5.95681 9.53895 6.75124 9.04606 6.75124C8.37919 6.75124 8.08925 5.90202 7.74133 5.84723C6.95849 5.76505 6.95849 6.12118 6.23364 6.0116" stroke="black" stroke-width="0.1" stroke-miterlimit="10" stroke-linecap="round" stroke-linejoin="round"/>
<path d="M24.4709 48.7465C24.4419 47.8699 24.4999 46.9933 24.5289 46.1167C24.5869 44.8291 24.7028 43.5416 24.6738 42.2541C24.6448 40.9666 24.5579 39.7064 24.3839 38.4463C22.4123 39.3777 16.8745 40.4735 12.3804 40.4735C6.32063 40.4735 2.43544 39.4599 0.579825 38.8298C0.550831 39.1311 0.579818 43.9799 0.318872 46.2262C0.202896 47.2124 0.492838 48.1712 0.347868 49.1574C0.28988 49.5683 0.289881 50.0066 0.376863 50.4175C0.724792 52.6639 1.07272 54.9376 1.44965 57.1839C1.56562 57.9235 1.71059 58.6632 1.82656 59.4028C3.16029 59.8959 5.24785 60.4986 8.00229 60.8821C7.97329 60.4712 7.9443 60.0603 7.91531 59.6494C7.71235 57.0743 7.42241 54.4993 7.19046 51.9242C7.13247 51.3215 7.04549 50.6915 6.95851 50.0888C6.95851 50.0066 6.95851 49.9518 6.92951 49.8149C7.62537 49.8971 8.29223 49.9792 8.9301 50.0614C8.98808 50.0614 9.07507 50.2258 9.07507 50.308C9.19104 51.5681 9.33602 52.8556 9.423 54.1157C9.59696 56.4169 9.77092 58.7454 9.91589 61.0465C13.4242 61.3204 17.8023 61.1287 22.9342 59.9507C23.2531 57.8688 23.6011 55.7868 23.949 53.7048C24.2679 52.0886 24.4999 50.4449 24.4709 48.7465Z" fill="#676766"/>
<path d="M10.1478 83.8384C9.33594 83.7562 8.49512 83.674 7.68328 83.5644C5.88566 83.2905 4.11702 82.8796 2.46436 82.0851C0.869691 81.3181 0.173828 80.1128 0.173828 78.4691C0.173828 76.935 0.434781 75.4284 0.869691 73.9217C1.18863 72.7437 1.56554 71.5658 1.91347 70.3878C2.37737 68.8264 2.49336 67.2375 2.46436 65.6486C2.43537 62.7996 1.94247 59.9781 1.44957 57.1565C1.07265 54.9101 0.37679 51.4311 0.37679 48.4725C0.37679 39.2955 0.753712 31.9538 1.82649 29.8719C2.7253 27.6255 3.62412 25.3792 4.55193 23.1329C5.85666 20.0921 6.63949 16.9418 6.98742 13.6819C7.0744 12.8601 7.13239 12.0383 7.19038 11.2164C7.21938 10.7233 7.13239 10.285 6.90044 9.84673C6.78447 9.60018 6.69748 9.35363 6.55251 9.10708C6.37855 8.80575 6.84246 7.29907 6.78447 6.12112L6.20459 6.03893C6.1466 4.83359 6.1466 3.68304 6.1466 3.54607C6.1176 2.9434 6.1466 1.38193 8.40813 0.888832C10.3507 0.450526 14.1199 0.423132 15.9756 0.834045C18.527 1.40932 18.556 2.61467 18.643 3.32691C18.672 3.65564 18.788 4.64183 18.759 5.7376C18.759 5.84718 18.2371 5.84718 18.2371 5.84718C18.2081 7.02513 18.585 8.44962 18.3531 8.86053C17.6572 10.0659 17.5702 11.2986 17.6862 12.5861C17.8892 14.7229 18.1211 16.887 18.788 18.9416C19.5128 21.1605 20.3537 23.3247 21.1945 25.5162C21.7744 26.9955 22.4122 28.4474 22.9921 29.954C24.5868 32.6935 24.4128 47.8424 24.4418 48.7191C24.4998 50.4175 24.2389 52.0611 23.9779 53.7048C23.514 56.5538 23.0211 59.4302 22.5862 62.2792C22.3253 63.9776 22.2093 65.7034 22.3542 67.4293C22.4702 68.9359 22.8761 70.3878 23.3401 71.8123C23.8619 73.3738 24.2969 74.9901 24.4708 76.6337C24.5578 77.4555 24.5868 78.3048 24.5868 79.1266C24.5868 80.3593 23.8619 81.1811 22.8471 81.8112C21.5424 82.6056 20.0637 83.0165 18.556 83.3179C17.0484 83.6192 15.5407 83.7014 14.033 83.7836C13.859 83.7836 13.6561 83.811 13.4821 83.8384C12.3803 83.8384 11.2495 83.8384 10.1478 83.8384Z" stroke="black" stroke-width="0.1" stroke-miterlimit="10" stroke-linecap="round" stroke-linejoin="round"/>
<path d="M14.584 2.53244C15.1349 2.47765 15.6278 2.39547 16.0627 2.28589" stroke="black" stroke-width="0.1" stroke-miterlimit="10" stroke-linecap="round" stroke-linejoin="round"/>
<path d="M7.3645 2.17627C7.8574 2.72415 9.88698 2.61457 12.3805 2.61457C12.8734 2.61457 13.5112 2.58718 13.5112 2.58718" stroke="black" stroke-width="0.1" stroke-miterlimit="10" stroke-linecap="round" stroke-linejoin="round"/>
</svg>
