<svg width="144" height="100" viewBox="0 0 144 100" fill="none" xmlns="http://www.w3.org/2000/svg">
<path d="M71.1029 69.2914C71.1029 70.7714 69.6936 71.9903 67.9823 71.9903H43.0176C41.3063 71.9903 39.897 70.7714 39.897 69.2914V60.237C39.897 58.7569 41.3063 57.5381 43.0176 57.5381H67.9823C69.6936 57.5381 71.1029 58.7569 71.1029 60.237V69.2914Z" fill="#FFE23F"/>
<path d="M71.1029 85.3981C71.1029 86.8781 69.6936 88.097 67.9823 88.097H43.0176C41.3063 88.097 39.897 86.8781 39.897 85.3981V76.3437C39.897 74.8636 41.3063 73.6448 43.0176 73.6448H67.9823C69.6936 73.6448 71.1029 74.8636 71.1029 76.3437V85.3981Z" fill="#FFE23F"/>
<path d="M71.1029 53.2721C71.1029 54.7521 69.6936 55.971 67.9823 55.971H43.0176C41.3063 55.971 39.897 54.7521 39.897 53.2721V44.2177C39.897 42.7377 41.3063 41.5188 43.0176 41.5188H67.9823C69.6936 41.5188 71.1029 42.7377 71.1029 44.2177V53.2721Z" fill="#FFE23F"/>
<path d="M60.3319 18.8827V15.7485H50.6681V18.8827C44.4269 20.624 39.897 25.7606 39.897 31.6808V37.1657C39.897 38.6458 41.3063 39.8646 43.0176 39.8646H67.9823C69.6936 39.8646 71.1029 38.6458 71.1029 37.1657V31.6808C71.1029 25.6735 66.5731 20.624 60.3319 18.8827Z" fill="#FFE23F"/>
<path d="M62.5467 13.3108C62.5467 13.7461 62.144 14.0943 61.6407 14.0943H49.3596C48.8563 14.0943 48.4536 13.7461 48.4536 13.3108V8.78355C48.4536 8.34825 48.8563 8 49.3596 8H61.7414C62.144 8 62.5467 8.34825 62.5467 8.78355V13.3108Z" fill="#FFE23F"/>
<path d="M104.103 69.2914C104.103 70.7714 102.694 71.9903 100.982 71.9903H76.0176C74.3063 71.9903 72.897 70.7714 72.897 69.2914V60.237C72.897 58.7569 74.3063 57.5381 76.0176 57.5381H100.982C102.694 57.5381 104.103 58.7569 104.103 60.237V69.2914Z" fill="#6DC1FD"/>
<path d="M104.103 85.3981C104.103 86.8781 102.694 88.097 100.982 88.097H76.0176C74.3063 88.097 72.897 86.8781 72.897 85.3981V76.3437C72.897 74.8636 74.3063 73.6448 76.0176 73.6448H100.982C102.694 73.6448 104.103 74.8636 104.103 76.3437V85.3981Z" fill="#6DC1FD"/>
<path d="M104.103 53.2721C104.103 54.7521 102.694 55.971 100.982 55.971H76.0176C74.3063 55.971 72.897 54.7521 72.897 53.2721V44.2177C72.897 42.7377 74.3063 41.5188 76.0176 41.5188H100.982C102.694 41.5188 104.103 42.7377 104.103 44.2177V53.2721Z" fill="#6DC1FD"/>
<path d="M93.3319 18.8827V15.7485H83.6681V18.8827C77.4269 20.624 72.897 25.7606 72.897 31.6808V37.1657C72.897 38.6458 74.3063 39.8646 76.0176 39.8646H100.982C102.694 39.8646 104.103 38.6458 104.103 37.1657V31.6808C104.103 25.6735 99.5731 20.624 93.3319 18.8827Z" fill="#6DC1FD"/>
<path d="M95.5467 13.3108C95.5467 13.7461 95.144 14.0943 94.6407 14.0943H82.3596C81.8563 14.0943 81.4536 13.7461 81.4536 13.3108V8.78355C81.4536 8.34825 81.8563 8 82.3596 8H94.7414C95.144 8 95.5467 8.34825 95.5467 8.78355V13.3108Z" fill="#6DC1FD"/>
<path d="M82.7437 45.5163C79.9775 45.8875 76.1173 46.1616 71.847 46.2461C67.6361 46.3294 63.8158 46.2072 61.0657 45.9649C59.107 49.4647 56.6086 54.3398 56.3881 58.2404C56.0136 64.6359 55.3814 96.7867 55.3814 96.7867C55.3467 98.1125 62.1092 99.0665 70.5311 98.8999C78.9233 98.7339 85.7717 97.5304 85.8069 96.1849C85.8069 96.1849 86.8548 64.006 86.8136 57.6385C86.7672 53.7433 84.5209 48.962 82.7437 45.5163Z" fill="#CF3636"/>
<path d="M82.7437 45.5163C79.9775 45.8875 76.1173 46.1616 71.847 46.2461C67.6361 46.3294 63.8158 46.2072 61.0657 45.9649C59.107 49.4647 56.6086 54.3398 56.3881 58.2404C56.0136 64.6359 55.3814 96.7867 55.3814 96.7867C55.3467 98.1125 62.1092 99.0665 70.5311 98.8999C78.9233 98.7339 85.7717 97.5304 85.8069 96.1849C85.8069 96.1849 86.8548 64.006 86.8136 57.6385C86.7672 53.7433 84.5209 48.962 82.7437 45.5163Z" stroke="#CF3636" stroke-width="0.1" stroke-miterlimit="10"/>
<path d="M86.6687 65.4534C86.492 66.5447 79.6191 67.5508 71.2862 67.7157C62.8643 67.8823 56.067 67.1267 56.096 66.0186C55.858 73.9937 55.6191 85.41 55.4803 91.8601C56.1058 92.8762 62.6388 93.5381 70.6159 93.3803C79.0377 93.2137 85.8815 92.1883 85.9105 91.0802L85.9417 91.0202C86.1403 84.5491 86.4927 73.3283 86.6687 65.4534Z" stroke="#CF3636" stroke-width="0.1" stroke-miterlimit="10"/>
<path d="M86.6687 65.4534C86.492 66.5447 79.6191 67.5508 71.2862 67.7157C62.8643 67.8823 56.067 67.1267 56.096 66.0186C55.858 73.9937 55.6191 85.41 55.4803 91.8601C56.1058 92.8762 62.6388 93.5381 70.6159 93.3803C79.0377 93.2137 85.8815 92.1883 85.9105 91.0802L85.9417 91.0202C86.1403 84.5491 86.4927 73.3283 86.6687 65.4534Z" fill="#D8EBBF" fill-opacity="0.81"/>
<path d="M65.4292 36.6426C65.4287 36.6624 65.4282 36.6821 65.4574 36.7013C65.4725 37.2548 65.5164 41.249 65.3085 42.4002C65.0684 43.6509 58.5772 52.7385 58.2026 59.134C57.8281 65.5295 57.1959 97.6804 57.1959 97.6804C57.1938 97.7595 57.2219 97.8183 57.2495 97.8969C57.956 98.0807 57.5148 97.9509 58.5486 98.0887C58.5898 95.3784 59.2041 65.0474 59.575 58.7904C59.9537 52.2366 66.45 42.9512 66.6912 41.6609C66.9298 40.4695 66.8584 36.3968 66.8437 35.8235C66.8145 35.8043 68.1704 36.0939 68.1714 36.0543C68.173 35.995 68.2037 35.9548 68.2942 35.8937C66.5399 36.1064 65.4365 36.3655 65.4292 36.6426Z" fill="#D8EBBF" fill-opacity="0.81"/>
<path d="M59.9026 70.0571C60.3511 69.9098 60.7069 69.9028 60.8547 69.9196C60.9436 69.9179 61.0019 69.9563 61.0004 70.0157C61.1602 70.7047 62.2468 75.6276 61.279 77.5058C61.279 77.5058 61.1718 74.7984 60.6871 72.9291C60.2821 71.4143 59.8913 70.4925 59.7804 70.198C59.7819 70.1386 59.8132 70.0787 59.9026 70.0571Z" fill="#CF3636"/>
<path d="M60.5292 72.2005C59.3778 72.0255 56.492 72.4386 55.8986 73.5975L55.8692 74.7253C55.8692 74.7253 56.5961 75.2647 57.6995 75.0056C58.8029 74.7464 59.7106 74.0363 60.1699 73.4734C60.6609 72.8308 60.5292 72.2005 60.5292 72.2005Z" stroke="#CF3636" stroke-width="0.1" stroke-miterlimit="10"/>
<path d="M61.3093 77.5049C61.3093 77.5049 59.2567 76.6556 57.2585 77.1302C56.6618 77.2804 56.1796 77.5866 55.7843 77.9702C55.7104 80.7999 55.6671 83.5893 55.6005 86.1419C56.3701 87.3134 57.5913 88.2187 59.5158 88.2993C65.5841 88.5946 67.5729 85.0745 67.9019 82.6947C68.2011 80.3154 67.53 77.639 61.3093 77.5049Z" fill="#CF3636"/>
<path d="M61.3093 77.5049C61.3093 77.5049 59.2567 76.6556 57.2585 77.1302C56.6618 77.2804 56.1796 77.5866 55.7843 77.9702C55.7104 80.7999 55.6671 83.5893 55.6005 86.1419C56.3701 87.3134 57.5913 88.2187 59.5158 88.2993C65.5841 88.5946 67.5729 85.0745 67.9019 82.6947C68.2011 80.3154 67.53 77.639 61.3093 77.5049Z" stroke="#CF3636" stroke-width="0.1" stroke-miterlimit="10"/>
<path d="M86.6687 65.4534C86.492 66.5447 79.6191 67.5508 71.2862 67.7157C62.8643 67.8823 56.067 67.1267 56.096 66.0186C55.858 73.9937 55.6191 85.41 55.4803 91.8601C56.1058 92.8762 62.6388 93.5381 70.6159 93.3803C79.0377 93.2137 85.8815 92.1883 85.9105 91.0802L85.9417 91.0202C86.1403 84.5491 86.4927 73.3283 86.6687 65.4534Z" stroke="#CF3636" stroke-width="0.1" stroke-miterlimit="10"/>
<path d="M83.4024 54.3437C82.1336 48.4553 78.292 42.341 78.1721 41.2556C78.0231 40.151 78.103 35.9566 78.1335 34.7892C76.5956 34.6614 75.0381 35.2855 75.0074 35.3257C75.0074 35.3257 74.9406 40.1527 75.086 41.3958C75.2053 42.5009 78.9835 48.7748 80.3086 54.7807L83.4024 54.3437Z" fill="#D8EBBF" fill-opacity="0.81"/>
<path d="M83.5325 55.0335L80.4387 55.4704C80.6225 56.3766 80.7173 57.2845 80.7539 58.1539L83.8155 57.8165C83.816 57.7967 83.8171 57.7571 83.8176 57.7373C83.781 56.8679 83.6862 55.96 83.5325 55.0335Z" fill="#D8EBBF" fill-opacity="0.81"/>
<path d="M86.7842 57.6194C86.7669 53.7433 84.5212 48.9423 82.7434 45.5164C81.4287 42.5165 80.9785 41.5958 81.0647 40.5657C81.1509 39.5356 81.229 34.2732 81.229 34.2732L72.1844 34.4521L63.1398 34.631C63.1398 34.631 62.943 39.8957 62.9754 40.9235C63.0079 41.9513 62.5091 42.8907 61.0363 45.9458L61.1544 45.9632C61.1247 45.9638 61.0654 45.965 61.0363 45.9458C59.0776 49.4456 56.5791 54.3207 56.3587 58.2212C55.9842 64.6167 55.3519 96.7676 55.3519 96.7676C55.3173 98.0933 62.0798 99.0473 70.5016 98.8807C78.8939 98.7147 85.7423 97.5113 85.7774 96.1657C85.7769 96.1855 86.8249 64.0067 86.7842 57.6194Z" stroke="#CF3636" stroke-width="0.1" stroke-miterlimit="10"/>
<path d="M82.1617 33.7603L62.2932 34.1533L62.2524 35.7165C62.2343 36.4091 66.668 36.8752 72.1541 36.7667C77.6402 36.6581 82.1028 36.0161 82.1209 35.3235L82.1617 33.7603Z" fill="#D8EBBF" fill-opacity="0.81"/>
<path d="M82.1617 33.7603L62.2932 34.1533L62.2524 35.7165C62.2343 36.4091 66.668 36.8752 72.1541 36.7667C77.6402 36.6581 82.1028 36.0161 82.1209 35.3235L82.1617 33.7603Z" stroke="#CF3636" stroke-width="0.1" stroke-miterlimit="10"/>
<path d="M62.3013 32.7092L62.2496 34.688C62.2315 35.3806 66.6652 35.8466 72.1513 35.7381C77.6374 35.6296 82.1 34.9875 82.1181 34.295L82.1698 32.3162L62.3013 32.7092Z" fill="#D8EBBF" fill-opacity="0.81"/>
<path d="M62.3013 32.7092L62.2496 34.688C62.2315 35.3806 66.6652 35.8466 72.1513 35.7381C77.6374 35.6296 82.1 34.9875 82.1181 34.295L82.1698 32.3162L62.3013 32.7092Z" stroke="#CF3636" stroke-width="0.1" stroke-miterlimit="10"/>
<path d="M72.2384 33.5411C77.725 33.4326 82.1847 32.8839 82.1995 32.3156C82.2144 31.7473 77.7787 31.3746 72.2922 31.4832C66.8056 31.5917 62.3459 32.1404 62.331 32.7086C62.3162 33.2769 66.7519 33.6496 72.2384 33.5411Z" fill="#D8EBBF" fill-opacity="0.81"/>
<path d="M72.2384 33.5411C77.725 33.4326 82.1847 32.8839 82.1995 32.3156C82.2144 31.7473 77.7787 31.3746 72.2922 31.4832C66.8056 31.5917 62.3459 32.1404 62.331 32.7086C62.3162 33.2769 66.7519 33.6496 72.2384 33.5411Z" stroke="#CF3636" stroke-width="0.1" stroke-miterlimit="10"/>
<path d="M81.4421 43.1291C80.938 43.139 80.4916 43.2072 80.0734 43.3341C80.0739 43.3144 80.0749 43.2748 80.0754 43.255C80.0852 42.879 79.6482 42.591 79.0848 42.6022C78.8772 42.6063 78.6686 42.6499 78.488 42.7524C78.2882 42.4597 77.8491 42.2508 77.345 42.2608C76.6332 42.2749 76.06 42.662 76.0476 43.1369C76.0435 43.2952 76.0991 43.4325 76.2141 43.5687L76.0061 43.5926C75.8676 43.2196 75.3712 42.9327 74.7781 42.9445C74.1257 42.9574 73.6133 43.2839 73.4844 43.682L73.4251 43.6832C73.4875 43.5633 73.5208 43.4242 73.5244 43.2857C73.5425 42.5931 72.6975 42.0363 71.6596 42.0568C70.8885 42.0721 70.1982 42.4022 69.8903 42.8434C69.7431 42.8067 69.5953 42.7899 69.447 42.7928C68.854 42.8045 68.3733 43.0514 68.1564 43.4117C67.8988 43.0608 67.3416 42.8344 66.7188 42.8468C66.3333 42.8544 66.005 42.94 65.7044 43.1042C65.4411 42.9709 65.1175 42.8784 64.7616 42.8855C64.2575 42.8955 63.8085 43.0626 63.5349 43.3251C63.2113 43.2326 62.8279 43.1611 62.4127 43.1693" stroke="#CF3636" stroke-width="0.1" stroke-miterlimit="10" stroke-linecap="round" stroke-linejoin="round"/>
<path d="M80.6811 64.3656C80.4778 74.4165 79.9227 92.2667 79.7447 97.9464C81.6467 97.7505 81.4928 97.9711 82.7751 97.6689C82.8875 94.5023 83.4798 75.2273 83.7074 64.2464L80.6811 64.3656Z" fill="#D8EBBF" fill-opacity="0.81"/>
</svg>
