<svg width="30" height="32" viewBox="0 0 30 32" fill="none" xmlns="http://www.w3.org/2000/svg">
<path d="M14.0625 24.3334H11.25C9.875 24.3334 8.75 25.5334 8.75 27V27.3334H7.5C6.9875 27.3334 6.5625 27.7867 6.5625 28.3334C6.5625 28.88 6.9875 29.3334 7.5 29.3334H22.5C23.0125 29.3334 23.4375 28.88 23.4375 28.3334C23.4375 27.7867 23.0125 27.3334 22.5 27.3334H21.25V27C21.25 25.5334 20.125 24.3334 18.75 24.3334H15.9375V21.28C15.625 21.32 15.3125 21.3334 15 21.3334C14.6875 21.3334 14.375 21.32 14.0625 21.28V24.3334Z" fill="#171717"/>
<path d="M23.1001 15.52C23.9251 15.1867 24.6501 14.64 25.2251 14.0267C26.3876 12.6534 27.1501 11.0134 27.1501 9.09335C27.1501 7.17335 25.7376 5.66669 23.9376 5.66669H23.2376C22.4251 3.89335 20.7251 2.66669 18.7501 2.66669H11.2501C9.2751 2.66669 7.5751 3.89335 6.7626 5.66669H6.0626C4.2626 5.66669 2.8501 7.17335 2.8501 9.09335C2.8501 11.0134 3.6126 12.6534 4.7751 14.0267C5.3501 14.64 6.0751 15.1867 6.9001 15.52C8.2001 18.9334 11.3251 21.3334 15.0001 21.3334C18.6751 21.3334 21.8001 18.9334 23.1001 15.52ZM18.5501 11.2667L17.7751 12.28C17.6501 12.4267 17.5626 12.72 17.5751 12.92L17.6501 14.2267C17.7001 15.0267 17.1626 15.44 16.4626 15.1467L15.3251 14.6667C15.1501 14.6 14.8501 14.6 14.6751 14.6667L13.5376 15.1467C12.8376 15.44 12.3001 15.0267 12.3501 14.2267L12.4251 12.92C12.4376 12.72 12.3501 12.4267 12.2251 12.28L11.4501 11.2667C10.9626 10.6534 11.1751 9.97335 11.9001 9.77335L13.0876 9.45335C13.2751 9.40002 13.5001 9.21335 13.6001 9.04002L14.2626 7.94669C14.6751 7.26669 15.3251 7.26669 15.7376 7.94669L16.4001 9.04002C16.5001 9.21335 16.7251 9.40002 16.9126 9.45335L18.1001 9.77335C18.8251 9.97335 19.0376 10.6534 18.5501 11.2667Z" fill="#171717"/>
</svg>
