<svg width="160" height="81" viewBox="0 0 160 81" fill="none" xmlns="http://www.w3.org/2000/svg">
<path d="M7.824 28.696C7.872 29.4 8.096 30.024 8.496 30.568C8.896 31.112 9.448 31.544 10.152 31.864C10.872 32.168 11.72 32.32 12.696 32.32C13.624 32.32 14.456 32.224 15.192 32.032C15.944 31.84 16.592 31.6 17.136 31.312C17.696 31.024 18.128 30.728 18.432 30.424L21.264 34.936C20.864 35.368 20.296 35.792 19.56 36.208C18.84 36.608 17.888 36.936 16.704 37.192C15.52 37.448 14.024 37.576 12.216 37.576C10.04 37.576 8.104 37.168 6.408 36.352C4.712 35.536 3.376 34.336 2.4 32.752C1.424 31.168 0.936 29.232 0.936 26.944C0.936 25.024 1.352 23.296 2.184 21.76C3.032 20.208 4.256 18.984 5.856 18.088C7.456 17.176 9.384 16.72 11.64 16.72C13.784 16.72 15.64 17.112 17.208 17.896C18.792 18.68 20.008 19.848 20.856 21.4C21.72 22.936 22.152 24.856 22.152 27.16C22.152 27.288 22.144 27.544 22.128 27.928C22.128 28.312 22.112 28.568 22.08 28.696H7.824ZM15.288 24.88C15.272 24.368 15.136 23.864 14.88 23.368C14.624 22.856 14.24 22.44 13.728 22.12C13.216 21.784 12.56 21.616 11.76 21.616C10.96 21.616 10.28 21.776 9.72 22.096C9.176 22.4 8.76 22.8 8.472 23.296C8.184 23.792 8.024 24.32 7.992 24.88H15.288ZM41.2103 37V33.808C41.0663 34.128 40.6983 34.592 40.1063 35.2C39.5303 35.808 38.7623 36.36 37.8023 36.856C36.8423 37.336 35.7223 37.576 34.4423 37.576C32.5223 37.576 30.8423 37.112 29.4023 36.184C27.9623 35.24 26.8423 33.984 26.0423 32.416C25.2423 30.832 24.8423 29.08 24.8423 27.16C24.8423 25.24 25.2423 23.496 26.0423 21.928C26.8423 20.344 27.9623 19.08 29.4023 18.136C30.8423 17.192 32.5223 16.72 34.4423 16.72C35.6743 16.72 36.7543 16.92 37.6823 17.32C38.6103 17.704 39.3623 18.168 39.9383 18.712C40.5143 19.24 40.9143 19.728 41.1383 20.176V17.296H48.3863V37H41.2103ZM31.9943 27.16C31.9943 28.056 32.2023 28.864 32.6183 29.584C33.0343 30.288 33.5863 30.84 34.2743 31.24C34.9783 31.64 35.7543 31.84 36.6023 31.84C37.4823 31.84 38.2583 31.64 38.9303 31.24C39.6023 30.84 40.1303 30.288 40.5143 29.584C40.9143 28.864 41.1143 28.056 41.1143 27.16C41.1143 26.264 40.9143 25.464 40.5143 24.76C40.1303 24.04 39.6023 23.48 38.9303 23.08C38.2583 22.664 37.4823 22.456 36.6023 22.456C35.7543 22.456 34.9783 22.664 34.2743 23.08C33.5863 23.48 33.0343 24.04 32.6183 24.76C32.2023 25.464 31.9943 26.264 31.9943 27.16ZM89.8114 30.688L95.1394 17.296H102.291L88.7554 46.984H81.4594L86.0194 37L77.7874 17.296H85.0594L89.8114 30.688Z" fill="#171717"/>
<path d="M62.16 0.183999H66.288V5.632H62.16V0.183999ZM62.16 36.496H66.288V41.944H62.16V36.496ZM64.536 4.744C66.504 4.744 68.224 4.96 69.696 5.392C71.168 5.824 72.352 6.28 73.248 6.76C74.144 7.24 74.688 7.56 74.88 7.72L71.424 13.504C71.168 13.312 70.728 13.032 70.104 12.664C69.496 12.296 68.768 11.968 67.92 11.68C67.088 11.392 66.216 11.248 65.304 11.248C64.072 11.248 63.072 11.472 62.304 11.92C61.552 12.352 61.176 13 61.176 13.864C61.176 14.456 61.376 14.992 61.776 15.472C62.192 15.936 62.816 16.384 63.648 16.816C64.496 17.232 65.568 17.688 66.864 18.184C68.048 18.616 69.16 19.128 70.2 19.72C71.24 20.312 72.152 21.016 72.936 21.832C73.736 22.632 74.368 23.56 74.832 24.616C75.296 25.672 75.528 26.872 75.528 28.216C75.528 29.816 75.2 31.208 74.544 32.392C73.888 33.56 72.992 34.528 71.856 35.296C70.736 36.064 69.456 36.632 68.016 37C66.592 37.384 65.112 37.576 63.576 37.576C61.4 37.576 59.448 37.328 57.72 36.832C56.008 36.336 54.624 35.8 53.568 35.224C52.512 34.648 51.88 34.264 51.672 34.072L55.248 28.048C55.44 28.192 55.808 28.424 56.352 28.744C56.912 29.064 57.592 29.4 58.392 29.752C59.192 30.088 60.04 30.376 60.936 30.616C61.848 30.856 62.744 30.976 63.624 30.976C65.096 30.976 66.2 30.696 66.936 30.136C67.672 29.56 68.04 28.808 68.04 27.88C68.04 27.192 67.808 26.576 67.344 26.032C66.88 25.488 66.184 24.976 65.256 24.496C64.328 24 63.168 23.48 61.776 22.936C60.384 22.376 59.08 21.696 57.864 20.896C56.664 20.096 55.688 19.096 54.936 17.896C54.184 16.696 53.808 15.208 53.808 13.432C53.808 11.656 54.304 10.12 55.296 8.824C56.304 7.512 57.624 6.504 59.256 5.8C60.904 5.096 62.664 4.744 64.536 4.744Z" fill="#FFB802"/>
<path d="M35.336 51.296H38.696V43.208H45.92V51.296H50.336V57.296H45.92V62.792C45.92 63.608 46.04 64.272 46.28 64.784C46.52 65.28 46.96 65.528 47.6 65.528C48.032 65.528 48.4 65.432 48.704 65.24C49.008 65.048 49.192 64.92 49.256 64.856L51.752 70.04C51.64 70.136 51.288 70.312 50.696 70.568C50.12 70.824 49.384 71.056 48.488 71.264C47.592 71.472 46.592 71.576 45.488 71.576C43.52 71.576 41.896 71.024 40.616 69.92C39.336 68.8 38.696 67.08 38.696 64.76V57.296H35.336V51.296ZM61.1255 71H53.8295V51.296H61.1255V54.344H61.0055C61.1335 53.976 61.4455 53.512 61.9415 52.952C62.4375 52.376 63.1335 51.864 64.0295 51.416C64.9255 50.952 66.0215 50.72 67.3175 50.72C68.2295 50.72 69.0695 50.864 69.8375 51.152C70.6055 51.424 71.1655 51.688 71.5175 51.944L68.6855 57.872C68.4615 57.6 68.0615 57.32 67.4855 57.032C66.9255 56.728 66.2215 56.576 65.3735 56.576C64.3975 56.576 63.5895 56.824 62.9495 57.32C62.3255 57.816 61.8615 58.416 61.5575 59.12C61.2695 59.824 61.1255 60.488 61.1255 61.112V71ZM88.2571 71V67.808C88.1131 68.128 87.7451 68.592 87.1531 69.2C86.5771 69.808 85.8091 70.36 84.8491 70.856C83.8891 71.336 82.7691 71.576 81.4891 71.576C79.5691 71.576 77.8891 71.112 76.4491 70.184C75.0091 69.24 73.8891 67.984 73.0891 66.416C72.2891 64.832 71.8891 63.08 71.8891 61.16C71.8891 59.24 72.2891 57.496 73.0891 55.928C73.8891 54.344 75.0091 53.08 76.4491 52.136C77.8891 51.192 79.5691 50.72 81.4891 50.72C82.7211 50.72 83.8011 50.92 84.7291 51.32C85.6571 51.704 86.4091 52.168 86.9851 52.712C87.5611 53.24 87.9611 53.728 88.1851 54.176V51.296H95.4331V71H88.2571ZM79.0411 61.16C79.0411 62.056 79.2491 62.864 79.6651 63.584C80.0811 64.288 80.6331 64.84 81.3211 65.24C82.0251 65.64 82.8011 65.84 83.6491 65.84C84.5291 65.84 85.3051 65.64 85.9771 65.24C86.6491 64.84 87.1771 64.288 87.5611 63.584C87.9611 62.864 88.1611 62.056 88.1611 61.16C88.1611 60.264 87.9611 59.464 87.5611 58.76C87.1771 58.04 86.6491 57.48 85.9771 57.08C85.3051 56.664 84.5291 56.456 83.6491 56.456C82.8011 56.456 82.0251 56.664 81.3211 57.08C80.6331 57.48 80.0811 58.04 79.6651 58.76C79.2491 59.464 79.0411 60.264 79.0411 61.16ZM108.895 50.72C110.191 50.72 111.375 50.832 112.447 51.056C113.519 51.264 114.415 51.504 115.135 51.776C115.871 52.048 116.343 52.272 116.551 52.448L114.175 56.744C113.871 56.52 113.303 56.232 112.471 55.88C111.655 55.528 110.743 55.352 109.735 55.352C108.967 55.352 108.319 55.472 107.791 55.712C107.263 55.936 106.999 56.296 106.999 56.792C106.999 57.288 107.287 57.688 107.863 57.992C108.455 58.28 109.303 58.536 110.407 58.76C111.367 58.952 112.343 59.256 113.335 59.672C114.327 60.088 115.151 60.704 115.807 61.52C116.479 62.32 116.815 63.392 116.815 64.736C116.815 66.112 116.519 67.248 115.927 68.144C115.335 69.04 114.551 69.736 113.575 70.232C112.599 70.728 111.543 71.072 110.407 71.264C109.271 71.472 108.167 71.576 107.095 71.576C105.591 71.576 104.279 71.44 103.159 71.168C102.055 70.896 101.159 70.584 100.471 70.232C99.7829 69.88 99.3029 69.6 99.0309 69.392L101.383 64.592C101.799 64.944 102.479 65.344 103.423 65.792C104.367 66.224 105.367 66.44 106.423 66.44C107.447 66.44 108.239 66.288 108.799 65.984C109.359 65.68 109.639 65.28 109.639 64.784C109.639 64.384 109.503 64.064 109.231 63.824C108.959 63.584 108.575 63.376 108.079 63.2C107.583 63.024 106.983 62.864 106.279 62.72C105.639 62.592 104.959 62.392 104.239 62.12C103.519 61.848 102.839 61.48 102.199 61.016C101.559 60.536 101.039 59.936 100.639 59.216C100.239 58.496 100.039 57.624 100.039 56.6C100.039 55.288 100.463 54.2 101.311 53.336C102.159 52.472 103.255 51.824 104.599 51.392C105.943 50.944 107.375 50.72 108.895 50.72ZM134.416 50.72C135.792 50.72 137.136 51 138.448 51.56C139.76 52.12 140.84 53.008 141.688 54.224C142.536 55.424 142.96 57.008 142.96 58.976V71H135.664V60.176C135.664 58.768 135.344 57.712 134.704 57.008C134.08 56.288 133.224 55.928 132.136 55.928C131.416 55.928 130.728 56.12 130.072 56.504C129.416 56.872 128.88 57.4 128.464 58.088C128.064 58.76 127.864 59.536 127.864 60.416V71H120.544V37.976H127.864V54.2C128.04 53.672 128.432 53.144 129.04 52.616C129.664 52.072 130.44 51.624 131.368 51.272C132.312 50.904 133.328 50.72 134.416 50.72ZM152.162 71.576C150.978 71.576 149.954 71.152 149.09 70.304C148.242 69.44 147.818 68.416 147.818 67.232C147.818 66.016 148.242 64.984 149.09 64.136C149.954 63.272 150.978 62.84 152.162 62.84C153.378 62.84 154.41 63.272 155.258 64.136C156.106 64.984 156.53 66.016 156.53 67.232C156.53 68.416 156.106 69.44 155.258 70.304C154.41 71.152 153.378 71.576 152.162 71.576Z" fill="black"/>
</svg>
