<svg width="30" height="108" viewBox="0 0 30 108" fill="none" xmlns="http://www.w3.org/2000/svg">
<circle cx="15.5" cy="69.5" r="2.5" fill="#B0B0B0"/>
<circle cx="15.5" cy="45.5" r="2.5" fill="#B0B0B0"/>
<circle cx="15.5" cy="23.5" r="2.5" fill="#B0B0B0"/>
<path fill-rule="evenodd" clip-rule="evenodd" d="M15.4002 102.805C17.1143 101.931 23.75 98.1354 23.75 91.75C23.75 86.9175 19.8325 83 15 83C10.1675 83 6.25 86.9175 6.25 91.75C6.25 98.1354 12.8857 101.931 14.5998 102.805C14.8536 102.934 15.1464 102.934 15.4002 102.805ZM15 95.5C17.0711 95.5 18.75 93.8211 18.75 91.75C18.75 89.6789 17.0711 88 15 88C12.9289 88 11.25 89.6789 11.25 91.75C11.25 93.8211 12.9289 95.5 15 95.5Z" fill="#CF3636"/>
<circle cx="15" cy="5" r="4.5" fill="white" stroke="black"/>
</svg>
