<svg width="51" height="92" viewBox="0 0 51 92" fill="none" xmlns="http://www.w3.org/2000/svg">
<path fill-rule="evenodd" clip-rule="evenodd" d="M19.7607 0.720963C19.3369 1.13583 16.9261 1.85488 14.4027 2.31976C11.8792 2.78464 8.50651 3.71768 6.90686 4.3941C4.37612 5.46406 3.9993 5.98552 3.9993 8.41979C3.9993 10.0711 3.14681 12.4881 1.91831 14.3198C-0.127845 17.3714 -0.157827 17.6305 0.130661 29.8076C0.308129 37.2703 1.04231 45.5316 1.97746 50.5936C3.49931 58.8336 3.49931 59.1025 2.00501 64.5318C-0.50466 73.6507 -0.522492 75.853 1.88508 79.3687C3.07792 81.1101 3.9993 83.5887 3.9993 85.0547C3.9993 88.1719 6.01952 89.4575 13.3184 90.9891C22.8733 92.9929 38.7936 91.8893 44.7197 88.8114C46.4652 87.9046 46.9482 87.0716 46.9482 84.9653C46.9482 83.3837 47.7829 81.1306 48.9741 79.4974L51 76.7188V46.9188C51 17.578 50.9725 17.082 49.2318 14.6994C48.2594 13.3687 47.257 10.7204 47.0033 8.81334C46.5682 5.53458 46.3234 5.26319 42.4913 3.81115C40.0788 2.89615 35.2329 2.09101 30.5126 1.82044C26.1528 1.57038 22.3936 1.05138 22.1586 0.666853C21.6043 -0.240772 20.7234 -0.221097 19.7607 0.720963ZM35.5084 4.10877C38.3536 4.57611 41.7725 5.52884 43.1055 6.22575C45.2708 7.35884 45.398 7.62613 44.3 8.73709C39.7628 13.3285 11.1847 13.3285 6.64755 8.73709C5.54951 7.62613 5.70186 7.34573 8.08188 6.1003C9.5462 5.33452 12.8419 4.51462 15.4051 4.27931L20.0654 3.85215L21.7729 7.23914L23.4811 10.6261H29.7922C33.9793 10.6261 36.6332 10.2326 37.6769 9.45778C39.1939 8.33042 39.1688 8.25745 36.9687 7.40804C35.7142 6.92348 32.75 6.52665 30.3821 6.52665C27.7695 6.52665 25.7225 6.09375 25.1747 5.42635C23.2542 3.08473 26.6399 2.65264 35.5084 4.10877ZM9.73663 6.60372C8.49921 7.10386 8.06 7.68353 8.54621 8.17546C9.37521 9.01422 15.1612 7.76223 16.5193 6.4504C17.5493 5.45587 12.2811 5.57475 9.73663 6.60372ZM10.8136 12.6849C16.3305 14.378 34.6421 14.3493 40.3365 12.639C44.6598 11.3394 46.1379 11.5452 46.1379 13.4441C46.1379 14.0385 46.6849 14.9839 47.3534 15.5455C48.0219 16.1071 48.5689 16.8811 48.5689 17.2665C48.5689 19.8418 35.989 22.9221 25.4738 22.9221C18.3637 22.9221 6.8161 20.9093 4.27969 19.2277L2.35914 17.9544L4.19217 14.7068C5.20025 12.9202 6.20753 11.46 6.43037 11.4616C6.65322 11.4624 8.62563 12.0134 10.8136 12.6849ZM38.4938 14.6371C37.8463 15.6972 39.3811 18.8251 40.5488 18.8251C41.0391 18.8251 41.1574 18.0618 40.8341 16.9803C40.0991 14.519 39.1477 13.5663 38.4938 14.6371ZM6.53086 22.6868C11.7171 24.7365 39.2304 24.7365 44.4167 22.6868C46.3664 21.9153 48.0989 21.2848 48.2659 21.2848C48.4328 21.2848 48.5689 33.821 48.5689 49.1424V77L46.7456 78.1561C43.2935 80.346 36.0603 81.4643 25.4738 81.4471C14.8808 81.4291 7.58189 80.3001 4.20189 78.1561C1.87374 76.6794 1.83808 73.695 4.04711 65.1623C5.65243 58.9615 5.66539 58.4827 4.38746 52.5048C3.14437 46.6917 1.66871 21.2848 2.57307 21.2848C2.79997 21.2848 4.58114 21.9153 6.53086 22.6868ZM40.4654 49.9811C40.4654 65.2861 40.7539 73.7581 41.2757 73.7581C41.7976 73.7581 42.0861 65.2861 42.0861 49.9811C42.0861 34.6761 41.7976 26.2042 41.2757 26.2042C40.7539 26.2042 40.4654 34.6761 40.4654 49.9811ZM13.9861 46.4712C10.7877 50.3993 8.35173 53.9093 8.57214 54.2708C8.79256 54.6316 9.31281 54.7152 9.72691 54.4561C10.7277 53.8297 21.8272 40.3695 21.8272 39.7816C21.8272 37.9237 18.9407 40.3867 13.9861 46.4712ZM8.23099 59.1361C8.55999 60.1347 16.3337 63.0364 18.7883 63.0765C21.9836 63.1282 19.858 61.5122 14.6109 59.8994C8.10538 57.9005 7.81203 57.8653 8.23099 59.1361ZM4.42393 71.2665C3.81859 72.2585 7.25289 73.7581 10.1297 73.7581C12.803 73.7581 12.632 72.4242 9.87439 71.7584C8.64832 71.4624 7.03814 71.0385 6.29585 70.8163C5.55357 70.5942 4.7108 70.7967 4.42393 71.2665ZM18.2089 83.6838C25.1675 84.5144 34.2596 83.9921 42.7481 82.2744C44.9077 81.8374 45.1249 81.9956 45.1249 84.0093C45.1249 85.7368 44.5415 86.4723 42.4823 87.343C37.6907 89.369 26.0694 90.3282 18.243 89.3444C8.7326 88.1481 6.19213 87.0568 6.06491 84.1126C5.97333 81.9948 6.14756 81.8587 8.37847 82.3105C9.70502 82.5786 14.1288 83.1968 18.2089 83.6838ZM38.5067 84.944C38.2263 85.6852 38.1631 86.46 38.3665 86.6658C39.0108 87.3176 40.4654 86.009 40.4654 84.7783C40.4654 83.1697 39.1372 83.2829 38.5067 84.944Z" fill="#243B6D"/>
</svg>
