<svg width="103" height="102" viewBox="0 0 103 102" fill="none" xmlns="http://www.w3.org/2000/svg">
<path d="M51.7646 29.482C51.8868 29.8316 51.9885 29.8316 52.1107 29.6568C51.8052 29.2877 51.5609 28.9186 51.7646 29.482ZM58.7509 27.8113C59.3213 28.2192 58.5881 27.6364 58.3233 27.3256L58.5269 27.6559L58.7509 27.8113ZM58.5269 27.6559L58.3233 27.3256C58.3233 27.3256 58.3233 27.3256 58.3233 27.2285L57.9158 27.3451C56.938 27.6559 55.2273 25.7132 55.5939 26.84C55.6709 27.066 55.712 27.3017 55.716 27.5393C56.6525 27.324 57.6337 27.3644 58.5473 27.6559H58.5269ZM44.0651 93.2002C49.5647 90.3057 60.0342 84.9247 70.9723 80.3983C76.908 77.9882 83.1558 76.3482 89.5486 75.5223C91.0356 75.2892 92.3596 75.0755 93.4595 74.8424C98.8573 73.6963 100.1 71.2097 96.6369 56.3097C96.4944 55.7075 96.3314 55.1053 96.1073 54.3671C95.8833 53.6289 95.6797 53.0655 95.4149 52.4244C95.1501 51.7834 94.8854 51.1034 94.5391 50.3458C94.1929 49.5882 93.8466 48.7723 93.5411 48.1312C93.5411 47.8787 92.8485 46.6548 92.2579 45.4115C92.0745 45.0036 91.8708 44.5956 91.219 43.2358C90.8524 42.4199 90.445 41.5457 89.9562 40.4967C89.4673 39.4476 89.0192 38.3986 88.6525 37.5439L88.245 36.5531C88.0617 36.1452 87.9396 35.815 87.8377 35.5624C87.7359 35.3099 87.3286 34.1637 86.9212 33.0564C86.5138 31.9491 87.1248 30.9195 86.5341 30.6281C85.8001 30.1645 85.1176 29.6308 84.4972 29.0351L84.0899 28.7049C83.9797 29.5857 83.7678 30.4521 83.4584 31.2886C82.8677 32.5513 81.9716 33.1341 80.5661 32.5513C79.1607 31.9685 78.529 30.2008 77.531 28.3358L76.7977 26.9177C76.1459 28.8603 75.4126 30.4921 73.2332 29.7539L71.1963 29.1323L69.4242 28.6078C69.0825 28.7666 68.7494 28.9417 68.4261 29.1323C67.0207 29.7928 65.656 30.4338 64.3524 29.4043C63.0488 28.3747 61.1137 29.4043 59.9526 30.0259C58.7916 30.6476 57.753 31.2497 56.6124 30.4338C56.3679 30.2396 55.4511 30.9195 54.1068 31.2109C51.5403 31.7742 49.0759 32.3182 48.4241 30.5116C47.7723 28.7049 49.4628 27.9861 51.133 27.1508C51.4793 26.9954 52.4774 28.7632 52.1515 27.7919C51.4793 25.7327 54.0661 24.9362 56.7141 24.1008C57.7732 23.7706 59.464 25.5384 59.1585 24.4894C58.5678 22.5468 60.7064 21.7503 62.8451 20.9344C63.5784 20.6624 64.8819 22.1777 64.556 21.2841C64.169 19.9048 65.0654 19.1472 66.756 18.7392C67.5097 18.545 68.7929 18.3701 70.0354 18.1758C72.6426 17.7873 75.9627 17.7485 75.922 17.5348C75.6776 15.9418 76.8181 15.3007 78.5494 15.0676C79.2238 14.9715 79.9044 14.9196 80.5863 14.9122H81.7475C81.4623 13.2804 81.177 11.5709 80.8919 9.80311C80.6067 8.03532 80.4031 6.17038 80.2198 4.2666C78.9977 4.2666 77.7144 4.26663 76.4108 4.42205C64.5358 5.1991 51.1534 8.94838 40.745 12.5617C31.0698 15.903 24.1239 18.1953 23.8387 18.3896L23.9611 20.0408C24.4499 27.1702 25.2036 38.1656 29.3385 46.5577C34.8584 57.7473 40.3173 69.8693 42.8634 79.7961C44.1393 84.1532 44.5469 88.6998 44.0651 93.2002ZM43.3522 97.4158L42.2726 97.9597C41.2015 99.5547 39.635 100.791 37.7916 101.495C37.285 101.695 36.7491 101.82 36.2027 101.864C33.6159 102.117 30.7643 100.602 28.0552 97.8043C25.1902 94.6178 22.9106 90.9923 21.313 87.081C19.139 81.8636 17.7669 76.3739 17.2392 70.7823C16.0584 57.5046 10.8651 44.8385 2.28857 34.3191C1.18865 32.901 0.49606 32.0268 0.455322 31.2109C0.455322 28.2192 5.9754 27.0342 8.72519 26.4709C9.23441 26.3737 9.31586 26.4709 9.45844 26.3738L11.1694 29.2877C10.6244 29.4988 10.0578 29.655 9.47883 29.7539C7.60221 30.0592 5.75558 30.5141 3.9587 31.1138C3.9587 31.3663 4.38657 31.4246 5.09948 32.3182C14.0767 43.3217 19.5049 56.5778 20.7225 70.4715C21.2493 75.7433 22.5804 80.9134 24.6739 85.8183C26.1217 89.3616 28.1877 92.6457 30.7846 95.5314C32.8214 97.4741 34.5529 98.6397 35.9787 98.5231C36.1731 98.4962 36.364 98.4507 36.5489 98.3871C41.6411 96.4445 41.8246 89.451 39.5229 80.4566C37.0582 70.7434 31.7012 58.9128 26.2423 47.8787C21.8223 38.9037 21.0482 27.5199 20.539 20.1185C20.539 19.5745 20.5391 19.0112 20.4169 18.3507V18.1953C20.4169 17.8456 28.4217 13.2416 39.6246 9.37573C50.2978 5.68473 64.0672 1.83831 76.2885 1.04183C78.2032 0.905843 80.1179 0.867035 81.9715 0.905888H83.5603L83.7028 2.40169C83.9268 4.86883 84.1917 7.14173 84.4972 9.27862C84.8027 11.4155 85.1898 13.533 85.5768 15.5145C85.8823 17.0491 84.925 17.7485 83.2955 18.0398C82.5082 18.1732 81.7116 18.2511 80.9123 18.273H79.3846C78.3865 20.2156 74.1905 20.8955 70.7278 21.4006C69.6483 21.5755 68.6909 21.7114 67.9169 21.8863C66.9506 22.91 65.6896 23.6397 64.2912 23.9843C63.6394 24.2368 62.4175 22.5273 62.7026 23.4986C62.8098 23.8791 62.7931 24.2817 62.6549 24.6529C62.5167 25.0241 62.2634 25.3465 61.9286 25.5773C62.7649 25.3979 63.6334 25.4082 64.4648 25.6073C65.2961 25.8063 66.067 26.1886 66.7152 26.7234C67.1226 27.0342 66.7153 26.2378 67.0616 26.0629C68.0909 25.3887 69.3524 25.1175 70.5854 25.3053L72.4795 25.8686L74.5164 26.5097C75.5552 26.8594 73.6202 25.791 73.7424 25.4219C73.8646 25.0528 74.0277 24.5477 74.1703 24.2368C74.8425 22.6439 75.7591 21.6143 77.4904 22.2942C78.7737 22.7993 79.7921 24.8197 80.8106 26.8206L80.9326 27.0731C81.0421 26.5285 81.2058 25.9951 81.4215 25.4802C82.0122 24.3146 82.8676 23.8289 84.1712 24.4117C85.1875 24.9924 86.1248 25.6906 86.9617 26.4903L88.2858 27.5976C88.9783 27.9473 89.732 30.0259 90.3227 31.9296C90.73 33.0564 91.1171 34.1248 91.1782 34.3191C91.2393 34.5134 91.504 35.0573 91.5855 35.2904L91.993 36.2423C92.4819 37.4079 92.9096 38.3404 93.2559 39.1369C93.6022 39.9333 94.0706 40.8852 94.4984 41.8371L95.5372 43.9934L96.8204 46.7519L97.8797 49.0248C98.1852 49.7242 98.4906 50.443 98.7758 51.22C99.0609 51.9971 99.3257 52.6964 99.5498 53.3763C99.7739 54.0562 99.9776 54.775 100.141 55.4938C104.214 73.2494 102.3 76.3188 94.2743 78.0089C93.0318 78.2808 91.6875 78.4751 90.2006 78.7277C84.0907 79.5188 78.1178 81.08 72.4388 83.3705C59.6879 88.7128 47.5278 95.1818 43.3522 97.4158Z" fill="black"/>
<path d="M16.7309 38.1061C15.4113 34.4321 14.4632 30.6461 13.8996 26.8L11.8627 27.2468C11.7201 27.2468 10.9462 25.0905 11.2314 26.0812C11.985 28.6843 13.9811 34.8231 16.4457 42.1856C18.9103 49.5482 22.0065 58.5814 24.6952 66.2936C25.4804 69.0037 26.1061 71.7537 26.5692 74.5304C28.4228 84.2436 31.0706 98.2111 37.1201 98.2888C37.4053 98.1916 37.5478 97.3369 37.5478 95.8994C37.4642 93.037 37.0269 90.194 36.2444 87.4295C32.9945 75.6647 28.5745 64.2225 23.0452 53.2586C20.6256 48.3323 18.5171 43.2725 16.7309 38.1061ZM13.7367 23.6529V23.4586V23.3615C13.7367 23.3615 13.7367 23.5558 13.7367 23.6529ZM22.0675 24.0026C20.4998 23.6526 18.881 23.5607 17.2809 23.7306C17.2809 23.7306 17.1383 24.0608 17.2809 24.6631C17.2917 24.7469 17.2917 24.8318 17.2809 24.9156C17.2809 25.1487 17.2809 25.4207 17.2809 25.7121C17.7694 29.5785 18.6982 33.3826 20.051 37.0571C21.8035 42.0885 23.8783 47.0127 26.2636 51.8016C31.9021 62.9822 36.4038 74.6525 39.707 86.6524C40.538 89.6746 41.0093 92.7765 41.1123 95.8994C41.1123 98.9104 40.1755 100.872 38.1997 101.475C37.8372 101.581 37.4582 101.627 37.0793 101.611C28.1374 101.494 25.184 85.9337 23.1063 75.1326C22.6889 72.5124 22.1108 69.9178 21.375 67.3621C18.7271 59.8053 15.6716 50.8886 13.1052 43.1958C10.5387 35.503 8.62411 29.5973 7.8501 26.9554C7.40198 25.4207 8.9093 24.5465 10.9258 24.022C11.9443 23.7695 12.9627 23.5558 13.7367 23.3809V23.4781C13.756 22.8641 13.9577 22.2679 14.3183 21.759C14.6789 21.25 15.1835 20.8491 15.7736 20.603C17.966 20.0734 20.2623 20.0734 22.4546 20.603L22.0675 24.0026Z" fill="black"/>
<path d="M49.4623 85.6203C49.2711 85.7479 49.0552 85.8382 48.8273 85.8863C48.5994 85.9343 48.3639 85.9391 48.1341 85.9003C47.9043 85.8616 47.6849 85.78 47.4881 85.6603C47.2914 85.5406 47.1211 85.3851 46.9873 85.2027C46.8536 85.0203 46.759 84.8145 46.7086 84.5972C46.6582 84.3799 46.6533 84.1552 46.6939 83.936C46.7346 83.7168 46.8201 83.5075 46.9456 83.3198C47.0711 83.1322 47.2342 82.9699 47.4255 82.8424C54.571 78.2751 62.2553 74.5259 70.32 71.6723C78.2467 68.8829 86.43 66.8081 94.7626 65.4753C94.99 65.4383 95.2228 65.4444 95.4477 65.4932C95.6726 65.542 95.885 65.6325 96.0732 65.7597C96.2614 65.8869 96.4216 66.0482 96.5444 66.2343C96.6673 66.4205 96.7505 66.628 96.7893 66.8448C96.8281 67.0616 96.8216 67.2837 96.7704 67.4982C96.7193 67.7127 96.6243 67.9154 96.491 68.0949C96.3576 68.2744 96.1886 68.4271 95.9934 68.5442C95.7982 68.6614 95.5805 68.7407 95.3532 68.7777C87.2695 70.0714 79.3316 72.0877 71.644 74.7999C63.8344 77.5724 56.3902 81.2037 49.4623 85.6203Z" fill="black"/>
<path d="M46.8142 78.0468C46.6216 78.1743 46.4046 78.2644 46.1755 78.312C45.9463 78.3595 45.7098 78.3636 45.479 78.3239C45.2483 78.2842 45.0278 78.2015 44.8306 78.0807C44.6333 77.9598 44.463 77.8031 44.3293 77.6194C44.1955 77.4357 44.1009 77.2287 44.0511 77.0102C44.0012 76.7917 43.997 76.5659 44.0386 76.3458C44.0802 76.1257 44.167 75.9157 44.2937 75.7275C44.4205 75.5394 44.5848 75.3769 44.7773 75.2494C52.0222 70.6325 59.7999 66.8258 67.9571 63.9044C75.7522 61.1165 83.8265 59.0986 92.0533 57.8822C92.5087 57.8231 92.9705 57.937 93.3386 58.1995C93.7067 58.4619 93.9519 58.8517 94.0214 59.285C94.0908 59.7183 93.9789 60.1603 93.7098 60.5157C93.4407 60.8711 93.0361 61.1113 92.583 61.1847C84.5939 62.3619 76.7519 64.3147 69.1792 67.0126C61.3072 69.8648 53.8034 73.567 46.8142 78.0468Z" fill="black"/>
<path d="M45.0039 70.4887C44.8113 70.6098 44.5957 70.6937 44.3691 70.7353C44.1426 70.777 43.9096 70.7757 43.6836 70.7315C43.4576 70.6873 43.2429 70.6011 43.0518 70.4777C42.8607 70.3544 42.697 70.1964 42.5699 70.0127C42.4429 69.829 42.355 69.6233 42.3113 69.4072C42.2677 69.1912 42.269 68.969 42.3153 68.7535C42.3617 68.5379 42.4521 68.3331 42.5814 68.1509C42.7107 67.9686 42.8764 67.8124 43.069 67.6913C50.3159 63.0777 58.0932 59.2712 66.2487 56.3463C74.0508 53.5583 82.1318 51.5404 90.3654 50.3241C90.5954 50.2881 90.8308 50.2957 91.0578 50.3465C91.2848 50.3973 91.4989 50.4904 91.6881 50.6203C91.8774 50.7503 92.0378 50.9145 92.1603 51.1037C92.2828 51.2929 92.3651 51.5033 92.4022 51.7228C92.4429 51.9426 92.437 52.1678 92.3848 52.3853C92.3327 52.6028 92.2353 52.8082 92.0986 52.9893C91.962 53.1703 91.7887 53.3235 91.5889 53.4396C91.3892 53.5558 91.1671 53.6325 90.9357 53.6655C82.9395 54.8403 75.0905 56.7931 67.5116 59.4934C59.598 62.3365 52.0472 66.0251 45.0039 70.4887Z" fill="black"/>
<path d="M42.3767 62.9315C42.1862 63.0548 41.9716 63.1407 41.7459 63.184C41.5201 63.2273 41.2876 63.2273 41.0619 63.1839C40.8361 63.1405 40.6218 63.0546 40.4313 62.9312C40.2408 62.8078 40.0782 62.6494 39.9527 62.4652C39.6969 62.0966 39.6047 61.6464 39.6963 61.2131C39.7879 60.7798 40.0559 60.3988 40.4415 60.1536C47.6837 55.5271 55.4618 51.7137 63.6213 48.7892C71.4233 46.0012 79.5044 43.9833 87.7379 42.767C87.968 42.7309 88.2034 42.7385 88.4304 42.7894C88.6574 42.8402 88.8717 42.9332 89.0609 43.0631C89.2501 43.1931 89.4106 43.3573 89.5331 43.5465C89.6556 43.7357 89.7377 43.9462 89.7748 44.1657C89.8154 44.3854 89.8095 44.6107 89.7574 44.8282C89.7052 45.0457 89.6081 45.2511 89.4714 45.4321C89.3347 45.6132 89.1612 45.7663 88.9615 45.8825C88.7617 45.9986 88.5397 46.0754 88.3083 46.1083C80.3121 47.2831 72.4631 49.236 64.8841 51.9362C56.9757 54.7907 49.4266 58.4786 42.3767 62.9315Z" fill="black"/>
<path d="M39.6647 55.5275C39.2757 55.7851 38.7955 55.8848 38.3294 55.8046C37.8634 55.7245 37.4498 55.471 37.1797 55.1001C36.9096 54.7291 36.805 54.271 36.8891 53.8265C36.9731 53.3821 37.2388 52.9877 37.6278 52.7301C44.8792 48.1186 52.6555 44.3061 60.8075 41.3657C68.6102 38.5839 76.6913 36.5725 84.9242 35.3629C85.1534 35.3258 85.388 35.3326 85.6144 35.3828C85.8408 35.433 86.0545 35.5258 86.243 35.6556C86.4314 35.7854 86.5909 35.9496 86.7122 36.1388C86.8334 36.328 86.914 36.5383 86.9491 36.7574C86.9843 36.9766 86.9734 37.2002 86.9171 37.4153C86.8607 37.6304 86.7598 37.8326 86.6207 38.0102C86.4815 38.1878 86.3065 38.3372 86.1062 38.4496C85.9059 38.5621 85.6841 38.6355 85.4538 38.6654C77.4576 39.8402 69.6086 41.793 62.0296 44.4933C54.1614 47.3535 46.6585 51.0552 39.6647 55.5275Z" fill="black"/>
<path d="M36.5081 48.7119C36.1191 48.9539 35.6451 49.0388 35.1905 48.9477C34.736 48.8566 34.338 48.5971 34.0841 48.2262C33.9548 48.0445 33.8647 47.8401 33.8193 47.6248C33.7738 47.4095 33.774 47.1877 33.8195 46.9724C33.865 46.7571 33.9549 46.5527 34.0843 46.371C34.2137 46.1894 34.3799 46.0342 34.5729 45.9145C43.5294 40.2165 53.279 35.7438 63.5374 32.6269C63.983 32.499 64.4637 32.5434 64.8753 32.7506C65.2869 32.9578 65.5966 33.3111 65.7373 33.7342C65.8067 33.9421 65.8321 34.161 65.8122 34.3783C65.7923 34.5956 65.7273 34.807 65.6212 35.0003C65.5152 35.1936 65.3702 35.3649 65.1943 35.5043C65.0184 35.6438 64.8152 35.7486 64.5966 35.8128C59.7216 37.289 54.9579 39.0804 50.3384 41.1745C45.5503 43.3775 40.9291 45.8961 36.5081 48.7119Z" fill="black"/>
<path d="M30.4387 25.8878C30.2474 26.0154 30.0318 26.1057 29.8039 26.1538C29.576 26.2018 29.3405 26.2066 29.1107 26.1678C28.8809 26.129 28.6612 26.0475 28.4645 25.9278C28.2677 25.8081 28.0977 25.6526 27.9639 25.4702C27.8302 25.2878 27.7356 25.082 27.6852 24.8647C27.6348 24.6474 27.6296 24.4227 27.6703 24.2035C27.711 23.9843 27.7966 23.7749 27.9222 23.5873C28.0477 23.3996 28.2105 23.2374 28.4018 23.1099C33.2496 20.0405 42.884 16.4078 52.8444 13.6104C62.4178 10.9296 72.3374 8.96753 78.5907 8.96753C79.0253 9.01216 79.4274 9.2084 79.7195 9.51858C80.0116 9.82876 80.173 10.231 80.173 10.6479C80.173 11.0648 80.0116 11.467 79.7195 11.7772C79.4274 12.0874 79.0253 12.2836 78.5907 12.3282C72.7041 12.3282 63.1309 14.2709 53.8223 16.8157C44.2897 19.5743 35.0013 22.9933 30.4387 25.8878Z" fill="black"/>
</svg>
