<svg id="visual" viewBox="0 0 900 600" width="900" height="600" xmlns="http://www.w3.org/2000/svg" xmlns:xlink="http://www.w3.org/1999/xlink" version="1.1"><rect x="0" y="0" width="900" height="600" fill="#e5ecce"></rect><path d="M0 356L21.5 366.5C43 377 86 398 128.8 402.5C171.7 407 214.3 395 257.2 396.8C300 398.7 343 414.3 385.8 411.7C428.7 409 471.3 388 514.2 386.3C557 384.7 600 402.3 642.8 414.2C685.7 426 728.3 432 771.2 427.8C814 423.7 857 409.3 878.5 402.2L900 395L900 601L878.5 601C857 601 814 601 771.2 601C728.3 601 685.7 601 642.8 601C600 601 557 601 514.2 601C471.3 601 428.7 601 385.8 601C343 601 300 601 257.2 601C214.3 601 171.7 601 128.8 601C86 601 43 601 21.5 601L0 601Z" fill="#266d1a"></path><path d="M0 403L21.5 411.7C43 420.3 86 437.7 128.8 446.5C171.7 455.3 214.3 455.7 257.2 446.2C300 436.7 343 417.3 385.8 416.2C428.7 415 471.3 432 514.2 428.8C557 425.7 600 402.3 642.8 396.8C685.7 391.3 728.3 403.7 771.2 405.2C814 406.7 857 397.3 878.5 392.7L900 388L900 601L878.5 601C857 601 814 601 771.2 601C728.3 601 685.7 601 642.8 601C600 601 557 601 514.2 601C471.3 601 428.7 601 385.8 601C343 601 300 601 257.2 601C214.3 601 171.7 601 128.8 601C86 601 43 601 21.5 601L0 601Z" fill="#2e7727"></path><path d="M0 437L21.5 434.8C43 432.7 86 428.3 128.8 432.3C171.7 436.3 214.3 448.7 257.2 455.2C300 461.7 343 462.3 385.8 464.2C428.7 466 471.3 469 514.2 463.7C557 458.3 600 444.7 642.8 442.2C685.7 439.7 728.3 448.3 771.2 455.7C814 463 857 469 878.5 472L900 475L900 601L878.5 601C857 601 814 601 771.2 601C728.3 601 685.7 601 642.8 601C600 601 557 601 514.2 601C471.3 601 428.7 601 385.8 601C343 601 300 601 257.2 601C214.3 601 171.7 601 128.8 601C86 601 43 601 21.5 601L0 601Z" fill="#368133"></path><path d="M0 488L21.5 487.3C43 486.7 86 485.3 128.8 486.8C171.7 488.3 214.3 492.7 257.2 487.2C300 481.7 343 466.3 385.8 464.8C428.7 463.3 471.3 475.7 514.2 479.5C557 483.3 600 478.7 642.8 481.2C685.7 483.7 728.3 493.3 771.2 491.3C814 489.3 857 475.7 878.5 468.8L900 462L900 601L878.5 601C857 601 814 601 771.2 601C728.3 601 685.7 601 642.8 601C600 601 557 601 514.2 601C471.3 601 428.7 601 385.8 601C343 601 300 601 257.2 601C214.3 601 171.7 601 128.8 601C86 601 43 601 21.5 601L0 601Z" fill="#3e8b3f"></path><path d="M0 498L21.5 498.2C43 498.3 86 498.7 128.8 496C171.7 493.3 214.3 487.7 257.2 484.2C300 480.7 343 479.3 385.8 479.2C428.7 479 471.3 480 514.2 484.5C557 489 600 497 642.8 498.5C685.7 500 728.3 495 771.2 494.3C814 493.7 857 497.3 878.5 499.2L900 501L900 601L878.5 601C857 601 814 601 771.2 601C728.3 601 685.7 601 642.8 601C600 601 557 601 514.2 601C471.3 601 428.7 601 385.8 601C343 601 300 601 257.2 601C214.3 601 171.7 601 128.8 601C86 601 43 601 21.5 601L0 601Z" fill="#46954b"></path><path d="M0 535L21.5 531.7C43 528.3 86 521.7 128.8 518.3C171.7 515 214.3 515 257.2 517.7C300 520.3 343 525.7 385.8 528.8C428.7 532 471.3 533 514.2 534.7C557 536.3 600 538.7 642.8 536.5C685.7 534.3 728.3 527.7 771.2 524.2C814 520.7 857 520.3 878.5 520.2L900 520L900 601L878.5 601C857 601 814 601 771.2 601C728.3 601 685.7 601 642.8 601C600 601 557 601 514.2 601C471.3 601 428.7 601 385.8 601C343 601 300 601 257.2 601C214.3 601 171.7 601 128.8 601C86 601 43 601 21.5 601L0 601Z" fill="#4e9f57"></path><path d="M0 551L21.5 550C43 549 86 547 128.8 547.5C171.7 548 214.3 551 257.2 554.5C300 558 343 562 385.8 560.2C428.7 558.3 471.3 550.7 514.2 546.8C557 543 600 543 642.8 546.8C685.7 550.7 728.3 558.3 771.2 563.8C814 569.3 857 572.7 878.5 574.3L900 576L900 601L878.5 601C857 601 814 601 771.2 601C728.3 601 685.7 601 642.8 601C600 601 557 601 514.2 601C471.3 601 428.7 601 385.8 601C343 601 300 601 257.2 601C214.3 601 171.7 601 128.8 601C86 601 43 601 21.5 601L0 601Z" fill="#56a963"></path></svg>