<svg width="42" height="55" viewBox="0 0 42 55" fill="none" xmlns="http://www.w3.org/2000/svg">
<path d="M41.1025 25.0378L41.0993 25.0538L41.0972 25.07C40.1911 31.8978 35.1595 39.2676 30.2765 44.9808C27.8452 47.8255 25.4705 50.2371 23.7034 51.9376C22.8201 52.7876 22.0892 53.4594 21.5799 53.9181C21.3921 54.0872 21.2344 54.2273 21.1104 54.3367C21.0124 54.2503 20.8934 54.1447 20.7552 54.0209C20.3174 53.6284 19.6865 53.0523 18.9168 52.3199C17.377 50.8547 15.2833 48.7657 13.0685 46.2711C8.62653 41.2681 3.74703 34.6881 1.82354 28.2662L1.81854 28.2495L1.81239 28.2332C0.964282 25.9845 0.5 23.5471 0.5 21C0.5 9.67816 9.67816 0.5 21 0.5C32.3218 0.5 41.5 9.67816 41.5 21C41.5 22.3826 41.3632 23.7328 41.1025 25.0378Z" fill="#208CFF" stroke="#243B6D"/>
<path d="M21 13.5C25.1421 13.5 28.5 16.8579 28.5 21C28.5 25.1421 25.1421 28.5 21 28.5C16.8579 28.5 13.5 25.1421 13.5 21C13.5 16.8579 16.8579 13.5 21 13.5Z" fill="white" stroke="#243B6D"/>
</svg>
