<svg width="514" height="137" viewBox="0 0 514 137" fill="none" xmlns="http://www.w3.org/2000/svg">
<path d="M7.20827 41.5201L35.9952 29.5008L37.3748 35.8687L15.444 45.0254L16.9923 52.1721L36.4142 44.0629L37.7095 50.0414L18.2875 58.1506L20.4462 68.1147L42.8312 58.7684L44.2059 65.1134L14.9648 77.3223L7.20827 41.5201Z" fill="url(#paint0_linear_1421_1514)"/>
<path d="M75.1736 18.2325L82.9226 16.8299L103.784 50.1463L96.1037 51.5364L92.6445 45.9212L71.5882 49.7325L69.374 56.3746L61.6711 57.7689L75.1736 18.2325ZM89.1896 40.3526L79.8383 25.1958L73.8068 43.137L89.1896 40.3526Z" fill="url(#paint1_linear_1421_1514)"/>
<path d="M126.103 37.528C127.403 38.3635 128.721 39.1297 130.057 39.8267C131.409 40.5091 132.811 41.1087 134.263 41.6253C135.715 42.1264 137.24 42.5383 138.839 42.8611C140.453 43.1848 142.172 43.4059 143.996 43.5242C146.195 43.6667 148.071 43.6475 149.624 43.4665C151.177 43.2699 152.446 42.9531 153.429 42.5161C154.429 42.0644 155.159 41.5014 155.619 40.827C156.095 40.1536 156.347 39.403 156.375 38.5754C156.419 37.248 155.901 36.1658 154.82 35.3289C153.739 34.4763 152.045 33.9751 149.737 33.8255C148.724 33.7598 147.653 33.7608 146.526 33.8286C145.399 33.8807 144.256 33.9474 143.097 34.0288C141.953 34.1111 140.818 34.1862 139.691 34.2539C138.579 34.3071 137.533 34.3018 136.55 34.2381C134.913 34.1319 133.345 33.819 131.847 33.2993C130.364 32.7806 129.053 32.0617 127.912 31.1426C126.786 30.2245 125.902 29.1108 125.258 27.8014C124.615 26.492 124.321 24.994 124.378 23.3074C124.412 22.308 124.578 21.325 124.876 20.3583C125.189 19.3927 125.658 18.4841 126.28 17.6324C126.919 16.7661 127.726 15.9811 128.703 15.2776C129.681 14.5585 130.849 13.9613 132.209 13.4861C133.585 13.0119 135.158 12.6757 136.931 12.4776C138.719 12.265 140.744 12.2319 143.005 12.3785C144.642 12.4847 146.284 12.6851 147.931 12.9796C149.578 13.2586 151.175 13.6126 152.723 14.0416C154.287 14.4717 155.786 14.968 157.22 15.5305C158.655 16.0774 159.987 16.6724 161.215 17.3154L157.763 23.1012C156.749 22.5816 155.656 22.096 154.483 21.6444C153.311 21.1771 152.083 20.761 150.798 20.396C149.514 20.031 148.18 19.7254 146.798 19.4793C145.431 19.2185 144.031 19.0416 142.596 18.9486C140.554 18.8162 138.865 18.8553 137.53 19.0661C136.21 19.2779 135.152 19.5927 134.357 20.0107C133.562 20.413 132.999 20.8929 132.668 21.4505C132.353 21.9935 132.186 22.546 132.167 23.1082C132.13 24.2014 132.591 25.1311 133.549 25.8976C134.509 26.6484 135.994 27.089 138.005 27.2194C138.816 27.272 139.746 27.2775 140.794 27.2359C141.859 27.1797 142.97 27.1188 144.129 27.0531C145.303 26.9883 146.492 26.9403 147.696 26.9088C148.917 26.8627 150.096 26.8766 151.234 26.9504C153.386 27.0899 155.28 27.4553 156.917 28.0466C158.569 28.6389 159.941 29.4243 161.033 30.4028C162.126 31.3657 162.939 32.5062 163.473 33.8241C164.007 35.1264 164.248 36.5662 164.195 38.1434C164.124 40.2516 163.569 42.1015 162.531 43.6931C161.509 45.2701 160.075 46.57 158.228 47.5927C156.397 48.6008 154.201 49.3191 151.639 49.7477C149.078 50.1607 146.238 50.2661 143.12 50.0639C141.062 49.9305 139.055 49.6673 137.099 49.2744C135.143 48.8972 133.268 48.4157 131.475 47.8299C129.699 47.2295 128.003 46.5483 126.388 45.7863C124.789 45.0096 123.309 44.1781 121.948 43.2917L126.103 37.528Z" fill="url(#paint2_linear_1421_1514)"/>
<path d="M194.701 48.0007L183.739 16.0803L191.782 18.5516L199.278 42.4388L213.2 25.1325L221.243 27.6038L201.811 50.1365L200.375 59.14L193.273 56.9579L194.701 48.0007Z" fill="url(#paint3_linear_1421_1514)"/>
<path d="M255.893 45.2297L242.752 42.039L243.566 35.5745L277.069 43.7089L276.255 50.1734L263.113 46.9827L259.349 76.8637L252.129 75.1107L255.893 45.2297Z" fill="#E2A53C"/>
<path d="M293.384 47.0149L311.86 49.4266C314.649 49.7906 317.046 50.4023 319.051 51.2617C321.057 52.1054 322.696 53.1687 323.969 54.4515C325.242 55.7343 326.15 57.2132 326.693 58.8882C327.252 60.5653 327.463 62.4094 327.327 64.4204C327.235 65.7766 326.984 67.0493 326.576 68.2384C326.168 69.4119 325.588 70.4686 324.837 71.4085C324.101 72.3504 323.194 73.16 322.117 73.8372C321.04 74.4987 319.795 75.0045 318.38 75.3546L325.49 88.078L316.473 86.9009L310.343 75.6266L310.134 75.5993L298.98 74.1198L298.275 84.5257L290.908 83.564L293.384 47.0149ZM310.709 69.1869C312.103 69.3689 313.331 69.364 314.391 69.1721C315.467 68.9823 316.373 68.6367 317.111 68.1353C317.863 67.6359 318.439 66.9876 318.837 66.1902C319.251 65.3793 319.494 64.4516 319.564 63.4072C319.703 61.365 319.112 59.6994 317.793 58.4106C316.474 57.1062 314.413 56.2709 311.609 55.9049L300.314 54.4305L299.414 67.7126L310.709 69.1869Z" fill="#E2A53C"/>
<path d="M358.115 53.2603L365.989 53.3804L383.416 90.2821L375.613 90.1631L372.732 83.9546L351.336 83.6285L348.452 89.7491L340.624 89.6298L358.115 53.2603ZM369.851 77.793L362.062 61.0321L354.22 77.5547L369.851 77.793Z" fill="#E2A53C"/>
<path d="M400.982 78.7782C402.344 79.389 403.717 79.928 405.102 80.3951C406.502 80.845 407.943 81.2042 409.427 81.4727C410.91 81.7257 412.457 81.8777 414.07 81.9287C415.698 81.9782 417.421 81.9079 419.239 81.7178C421.43 81.4887 423.288 81.1533 424.811 80.7116C426.333 80.2544 427.563 79.7257 428.499 79.1257C429.45 78.5085 430.124 77.8261 430.521 77.0785C430.934 76.3293 431.118 75.5412 431.073 74.7143C431.001 73.3881 430.393 72.4005 429.248 71.7513C428.102 71.0866 426.379 70.8744 424.079 71.1149C423.069 71.2205 422.009 71.402 420.897 71.6594C419.785 71.9012 418.658 72.1602 417.517 72.4365C416.391 72.7111 415.272 72.9771 414.161 73.2345C413.064 73.4747 412.026 73.646 411.047 73.7483C409.416 73.9189 407.835 73.8724 406.304 73.6087C404.79 73.3434 403.427 72.8505 402.215 72.1298C401.02 71.4075 400.046 70.4503 399.293 69.258C398.541 68.0657 398.119 66.627 398.028 64.942C397.974 63.9435 398.052 62.9389 398.263 61.9284C398.489 60.9162 398.874 59.9346 399.416 58.9836C399.973 58.0153 400.705 57.0993 401.611 56.2357C402.517 55.3565 403.623 54.5662 404.929 53.8648C406.25 53.1618 407.78 52.5624 409.52 52.0668C411.273 51.5539 413.277 51.1797 415.53 50.9441C417.162 50.7735 418.807 50.6957 420.464 50.7107C422.121 50.7101 423.735 50.7924 425.307 50.9576C426.894 51.1211 428.423 51.3614 429.894 51.6784C431.363 51.9797 432.735 52.3463 434.009 52.7779L431.094 59.1079C430.043 58.7627 428.918 58.4646 427.716 58.2136C426.514 57.947 425.26 57.7407 423.955 57.5948C422.65 57.4488 421.302 57.3701 419.91 57.3587C418.534 57.33 417.13 57.3904 415.701 57.5399C413.665 57.7527 411.994 58.0764 410.69 58.511C409.4 58.9439 408.38 59.435 407.628 59.9843C406.876 60.518 406.36 61.0897 406.08 61.6995C405.816 62.292 405.698 62.8691 405.729 63.4308C405.788 64.523 406.326 65.3689 407.343 65.9686C408.36 66.5528 409.87 66.74 411.875 66.5304C412.683 66.446 413.605 66.2947 414.64 66.0766C415.69 65.8413 416.786 65.5933 417.928 65.3327C419.086 65.0704 420.261 64.8221 421.451 64.5878C422.657 64.3363 423.827 64.1512 424.961 64.0326C427.106 63.8084 429.015 63.852 430.688 64.1634C432.377 64.4732 433.806 65.0221 434.974 65.8101C436.141 66.5824 437.047 67.5782 437.691 68.7975C438.335 70.0011 438.699 71.3908 438.785 72.9666C438.899 75.0729 438.511 77.0041 437.622 78.7603C436.747 80.4993 435.44 82.0325 433.699 83.3599C431.973 84.6701 429.859 85.754 427.358 86.6117C424.856 87.4538 422.051 88.0374 418.943 88.3623C416.892 88.5768 414.88 88.6537 412.908 88.5932C410.936 88.5483 409.036 88.386 407.208 88.1064C405.395 87.8096 403.654 87.4189 401.987 86.9342C400.335 86.4323 398.795 85.8558 397.369 85.2047L400.982 78.7782Z" fill="#E2A53C"/>
<path d="M454.271 46.682L461.508 45.0034L462.651 54.4974L484.843 49.3503L483.7 39.8563L490.961 38.1724L495.338 74.5428L488.077 76.2267L485.602 55.6564L463.41 60.8034L465.885 81.3737L458.648 83.0524L454.271 46.682Z" fill="#E2A53C"/>
<defs>
<linearGradient id="paint0_linear_1421_1514" x1="9.81536" y1="77.7206" x2="55.1377" y2="67.9016" gradientUnits="userSpaceOnUse">
<stop stop-color="#D8EBBF" stop-opacity="0.81"/>
<stop offset="0.0001" stop-color="#4EAF5B"/>
</linearGradient>
<linearGradient id="paint1_linear_1421_1514" x1="61.1044" y1="56.9798" x2="111.07" y2="52.287" gradientUnits="userSpaceOnUse">
<stop stop-color="#D8EBBF" stop-opacity="0.81"/>
<stop offset="0.0001" stop-color="#4EAF5B"/>
</linearGradient>
<linearGradient id="paint2_linear_1421_1514" x1="118.861" y1="47.2585" x2="173.385" y2="49.0931" gradientUnits="userSpaceOnUse">
<stop stop-color="#D8EBBF" stop-opacity="0.81"/>
<stop offset="0.0001" stop-color="#4EAF5B"/>
</linearGradient>
<linearGradient id="paint3_linear_1421_1514" x1="177.761" y1="50.9231" x2="224.281" y2="58.3399" gradientUnits="userSpaceOnUse">
<stop stop-color="#D8EBBF" stop-opacity="0.81"/>
<stop offset="0.0001" stop-color="#4EAF5B"/>
</linearGradient>
</defs>
</svg>
